<svg xmlns="http://www.w3.org/2000/svg" viewBox="0 0 165.2 42.8"><defs><style>.a{fill:#fff;}</style></defs><title>boutik_logo_white</title><path class="a" d="M0,42V0H17.9a21.8,21.8,0,0,1,5.2.6,11.2,11.2,0,0,1,4.1,1.9,8.5,8.5,0,0,1,2.6,3.3,11.7,11.7,0,0,1,.9,4.9,10.1,10.1,0,0,1-1.7,6,9.8,9.8,0,0,1-4.7,3.5,10.1,10.1,0,0,1,5.3,3.4,9.6,9.6,0,0,1,2,6.2,15,15,0,0,1-1,5.7A9.4,9.4,0,0,1,28,39.3a11,11,0,0,1-4.3,2.1,21.9,21.9,0,0,1-5.5.6ZM8,16.9H19a3.3,3.3,0,0,0,2.7-.9,4.5,4.5,0,0,0,.7-2.8V10q0-3.2-3.4-3.2H8ZM8,35.2H19.4a4.3,4.3,0,0,0,3-.9,3.7,3.7,0,0,0,1-2.9V27.3q0-3.6-3.7-3.6H8Z"/><path class="a" d="M35.2,26.3a21.5,21.5,0,0,1,1-6.7A15.1,15.1,0,0,1,39,14.3a12.5,12.5,0,0,1,4.6-3.4,15.8,15.8,0,0,1,6.3-1.2,15.8,15.8,0,0,1,6.3,1.2,12.6,12.6,0,0,1,4.6,3.4,14.9,14.9,0,0,1,2.9,5.2,21.8,21.8,0,0,1,1,6.7,21.7,21.7,0,0,1-1,6.7,15.1,15.1,0,0,1-2.9,5.2,12.5,12.5,0,0,1-4.6,3.4,15.8,15.8,0,0,1-6.3,1.2,15.8,15.8,0,0,1-6.3-1.2A12.4,12.4,0,0,1,39,38.2,15.3,15.3,0,0,1,36.2,33,21.4,21.4,0,0,1,35.2,26.3Zm8,4.6a5.3,5.3,0,0,0,1.9,4.4,7.4,7.4,0,0,0,4.8,1.6,7.6,7.6,0,0,0,4.8-1.5,5.3,5.3,0,0,0,1.9-4.4V21.7a5.3,5.3,0,0,0-1.9-4.4,7.6,7.6,0,0,0-4.8-1.5,7.5,7.5,0,0,0-4.8,1.5,5.3,5.3,0,0,0-1.9,4.4Z"/><path class="a" d="M69.2,31.1V10.5h7.7V30.6A7.5,7.5,0,0,0,78,34.9q1.1,1.6,3.9,1.6a6.1,6.1,0,0,0,4.9-2.1,8.3,8.3,0,0,0,1.8-5.6V10.5h7.7V42H88.6V37.4a10.3,10.3,0,0,1-3.7,4,10.6,10.6,0,0,1-5.6,1.4q-5.1,0-7.6-3.1T69.2,31.1Z"/><path class="a" d="M102.7,0h7.7V10.5h7.8v6h-7.8V36h7.8v6H102.7Z"/><path class="a" d="M122.4,6.9V0h8V6.9Zm.1,35.1V10.5h7.7V42Z"/><path class="a" d="M136.7,42V0h7.7V42Zm7.8-17.3,10.6-14.2h9.1L153,24.7,165.2,42h-8.6Z"/></svg>